<svg width="960" height="720" viewBox="0 0 960 720" fill="none" xmlns="http://www.w3.org/2000/svg">
  <rect width="960" height="720" rx="54" fill="#ECE4DB"/>
  <circle cx="798" cy="118" r="210" fill="#D8E2DC" opacity="0.88"/>
  <circle cx="176" cy="592" r="236" fill="#F5EBE0" opacity="0.94"/>
  <path d="M0 486C126 397 256 375 407 443C575 518 704 467 960 271V720H0V486Z" fill="#D8E2DC" opacity="0.36"/>

  <rect x="195" y="140" width="570" height="430" rx="52" fill="#FFFDF8" opacity="0.58"/>
  <rect x="253" y="199" width="454" height="312" rx="40" fill="#FFFDF8" opacity="0.68"/>

  <circle cx="387" cy="337" r="48" fill="#D6A08A" opacity="0.72"/>
  <path d="M329 451C361 394 429 388 478 437" stroke="#6F8879" stroke-width="23" stroke-linecap="round"/>
  <path d="M598 297C629 323 646 360 644 398C642 457 601 504 545 518" stroke="#8AA091" stroke-width="18" stroke-linecap="round" opacity="0.72"/>
  <path d="M537 246C590 223 653 233 695 272" stroke="#C6866A" stroke-width="18" stroke-linecap="round" opacity="0.68"/>
  <circle cx="642" cy="382" r="22" fill="#C6866A" opacity="0.4"/>
  <circle cx="536" cy="518" r="18" fill="#6F8879" opacity="0.35"/>

  <path d="M331 250H451" stroke="#D6CCC2" stroke-width="16" stroke-linecap="round" opacity="0.68"/>
  <path d="M331 282H429" stroke="#D6CCC2" stroke-width="12" stroke-linecap="round" opacity="0.48"/>
</svg>
