<svg width="960" height="1120" viewBox="0 0 960 1120" fill="none" xmlns="http://www.w3.org/2000/svg">
  <rect width="960" height="1120" rx="58" fill="#EDEDE9"/>
  <circle cx="148" cy="174" r="230" fill="#F8F3EA" opacity="0.92"/>
  <circle cx="820" cy="884" r="312" fill="#D6CCC2" opacity="0.62"/>
  <path d="M0 820C149 696 295 674 444 755C614 848 742 796 960 631V1120H0V820Z" fill="#D8E2DC" opacity="0.7"/>

  <rect x="142" y="208" width="676" height="704" rx="64" fill="#FFFDF8" opacity="0.5"/>
  <rect x="194" y="270" width="572" height="530" rx="50" fill="#F5EBE0" opacity="0.82"/>

  <rect x="282" y="410" width="396" height="236" rx="36" fill="#FFFDF8" opacity="0.66"/>
  <path d="M315 647C354 577 426 558 480 613C532 559 607 576 645 647" stroke="#6F8879" stroke-width="25" stroke-linecap="round" stroke-linejoin="round" opacity="0.8"/>
  <path d="M337 511C395 462 459 462 514 511C556 476 604 470 652 493" stroke="#C6866A" stroke-width="20" stroke-linecap="round" opacity="0.72"/>

  <circle cx="325" cy="352" r="38" fill="#D6A08A" opacity="0.48"/>
  <circle cx="670" cy="360" r="48" fill="#8AA091" opacity="0.42"/>
  <path d="M238 786H722" stroke="#FFFDF8" stroke-width="22" stroke-linecap="round" opacity="0.58"/>
  <path d="M296 836H664" stroke="#FFFDF8" stroke-width="18" stroke-linecap="round" opacity="0.4"/>
</svg>
